<svg width="146" height="40" viewBox="0 0 146 40" fill="none" xmlns="http://www.w3.org/2000/svg">
<path d="M0.2478 21.7747C0.418513 23.09 1.05832 24.2979 2.04789 25.173C3.03746 26.0481 4.3092 26.5306 5.6259 26.5306C6.9426 26.5306 8.21434 26.0481 9.20391 25.173C10.1935 24.2979 10.8333 23.09 11.004 21.7747H0.2478ZM29.5529 32.7755C29.5532 32.8867 29.5318 32.9969 29.4898 33.0998C29.4479 33.2026 29.3862 33.2961 29.3083 33.375C29.2305 33.4538 29.138 33.5164 29.0361 33.5592C28.9342 33.602 28.8249 33.6241 28.7146 33.6243H13.0435C12.5832 33.6243 12.2035 33.2435 12.2035 32.7755C12.2046 32.5519 12.2937 32.3379 12.4511 32.1804C12.6086 32.0229 12.8216 31.9347 13.0435 31.9351H28.7137C29.1774 31.9351 29.5529 32.3109 29.5529 32.7755ZM12.2951 34.0568H29.4622V36.5H12.2951V34.0568ZM30.996 21.7747C31.1655 23.0909 31.8048 24.3 32.7944 25.1761C33.784 26.0523 35.0563 26.5356 36.3737 26.5359C37.6909 26.5359 38.9631 26.0526 39.9523 25.1763C40.9416 24.3001 41.5802 23.0908 41.7488 21.7747H30.996ZM41.4532 20.0745L37.049 13.9626H39.4036C39.9764 13.9626 40.4376 13.4895 40.4376 12.9048C40.4376 12.3251 39.9756 11.8571 39.4036 11.8571H26.9312C26.561 10.8296 25.9287 9.91851 25.0979 9.21551C24.2671 8.5125 23.2671 8.04237 22.1987 7.85244V4.55447C22.1987 3.968 21.7316 3.5 21.1529 3.5L21.0554 3.511L20.958 3.5C20.8206 3.49967 20.6844 3.52673 20.5575 3.57963C20.4305 3.63254 20.3151 3.71024 20.2181 3.80825C20.121 3.90627 20.0442 4.02267 19.992 4.15074C19.9397 4.27881 19.9132 4.41602 19.9139 4.55447V7.85075C18.8456 8.04054 17.8458 8.51065 17.0152 9.21369C16.1847 9.91674 15.5527 10.8279 15.183 11.8554H2.70816C2.13948 11.8554 1.6758 12.3234 1.6758 12.9031C1.6758 13.4887 2.13948 13.9609 2.70816 13.9609H4.95516L0.5502 20.0728H0V21.2017H11.2543V20.0728H10.7016L6.29832 13.9626H16.5203C16.5203 13.724 16.5463 13.4895 16.5816 13.2653C16.6177 13.1595 16.6421 13.052 16.6421 12.9411C16.8314 12.1371 17.2369 11.4012 17.8141 10.8141C18.3912 10.2269 19.1177 9.81128 19.9139 9.61271V21.2043H19.8702C19.7803 25.5643 17.7215 29.3667 14.6672 31.5035H27.447C24.3919 29.3667 22.3348 25.5643 22.2398 21.2043H22.1995V9.61271C22.9956 9.81132 23.7219 10.227 24.2989 10.8141C24.8759 11.4013 25.2813 12.1372 25.4705 12.9411C25.4738 13.052 25.4965 13.1595 25.5335 13.2653C25.5671 13.4904 25.5881 13.724 25.5881 13.9626H35.7034L31.2984 20.0745H30.749V21.2034H42V20.0745H41.4532ZM5.1786 20.0745H1.6632L5.1786 15.1956V20.0745ZM6.07824 20.0745V15.1956L9.59364 20.0745H6.07824ZM35.9251 20.0745H32.408L35.9251 15.1956V20.0745ZM36.8206 20.0745V15.1956L40.3402 20.0745H36.8206ZM6.67044 10.3862C6.66273 10.6599 6.54939 10.9198 6.3545 11.1107C6.15961 11.3015 5.89853 11.4083 5.62674 11.4083C5.35495 11.4083 5.09387 11.3015 4.89898 11.1107C4.70409 10.9198 4.59075 10.6599 4.58304 10.3862C4.58304 9.80566 5.05176 9.33175 5.62884 9.33175C6.2034 9.3309 6.67044 9.80566 6.67044 10.3862ZM37.4178 10.3304C37.4178 10.9151 36.9508 11.3789 36.3745 11.3789C36.2375 11.3798 36.1016 11.3533 35.9748 11.301C35.848 11.2486 35.7327 11.1715 35.6357 11.0739C35.5387 10.9764 35.4618 10.8605 35.4096 10.7329C35.3573 10.6052 35.3307 10.4684 35.3312 10.3304C35.3256 10.1888 35.3484 10.0475 35.3983 9.91503C35.4482 9.78256 35.5241 9.6616 35.6216 9.55941C35.719 9.45723 35.8359 9.37594 35.9653 9.3204C36.0947 9.26487 36.2339 9.23624 36.3745 9.23624C36.5152 9.23624 36.6544 9.26487 36.7837 9.3204C36.9131 9.37594 37.03 9.45723 37.1275 9.55941C37.2249 9.6616 37.3009 9.78256 37.3507 9.91503C37.4006 10.0475 37.4234 10.1888 37.4178 10.3304Z" fill="white"/>
<path d="M57.008 16.192C56.112 16.192 55.2533 16.0747 54.432 15.84C53.6107 15.5947 52.9493 15.28 52.448 14.896L53.328 12.944C53.808 13.2853 54.3733 13.568 55.024 13.792C55.6853 14.0053 56.352 14.112 57.024 14.112C57.536 14.112 57.9467 14.064 58.256 13.968C58.576 13.8613 58.8107 13.7173 58.96 13.536C59.1093 13.3547 59.184 13.1467 59.184 12.912C59.184 12.6133 59.0667 12.3787 58.832 12.208C58.5973 12.0267 58.288 11.8827 57.904 11.776C57.52 11.6587 57.0933 11.552 56.624 11.456C56.1653 11.3493 55.7013 11.2213 55.232 11.072C54.7733 10.9227 54.352 10.7307 53.968 10.496C53.584 10.2613 53.2693 9.952 53.024 9.568C52.7893 9.184 52.672 8.69333 52.672 8.096C52.672 7.456 52.8427 6.87467 53.184 6.352C53.536 5.81867 54.0587 5.39733 54.752 5.088C55.456 4.768 56.336 4.608 57.392 4.608C58.096 4.608 58.7893 4.69333 59.472 4.864C60.1547 5.024 60.7573 5.26933 61.28 5.6L60.48 7.568C59.9573 7.26933 59.4347 7.05067 58.912 6.912C58.3893 6.76267 57.8773 6.688 57.376 6.688C56.8747 6.688 56.464 6.74667 56.144 6.864C55.824 6.98133 55.5947 7.136 55.456 7.328C55.3173 7.50933 55.248 7.72267 55.248 7.968C55.248 8.256 55.3653 8.49067 55.6 8.672C55.8347 8.84267 56.144 8.98133 56.528 9.088C56.912 9.19467 57.3333 9.30133 57.792 9.408C58.2613 9.51467 58.7253 9.63733 59.184 9.776C59.6533 9.91467 60.08 10.1013 60.464 10.336C60.848 10.5707 61.1573 10.88 61.392 11.264C61.6373 11.648 61.76 12.1333 61.76 12.72C61.76 13.3493 61.584 13.9253 61.232 14.448C60.88 14.9707 60.352 15.392 59.648 15.712C58.9547 16.032 58.0747 16.192 57.008 16.192ZM62.0591 16L67.0511 4.8H69.6111L74.6191 16H71.8991L67.8031 6.112H68.8271L64.7151 16H62.0591ZM64.5551 13.6L65.2431 11.632H71.0031L71.7071 13.6H64.5551ZM80.5228 16.192C78.9334 16.192 77.6908 15.7493 76.7948 14.864C75.8988 13.9787 75.4508 12.7147 75.4508 11.072V4.8H78.0428V10.976C78.0428 12.0427 78.2614 12.8107 78.6988 13.28C79.1361 13.7493 79.7494 13.984 80.5388 13.984C81.3281 13.984 81.9414 13.7493 82.3788 13.28C82.8161 12.8107 83.0347 12.0427 83.0347 10.976V4.8H85.5948V11.072C85.5948 12.7147 85.1468 13.9787 84.2508 14.864C83.3548 15.7493 82.1121 16.192 80.5228 16.192ZM88.1561 16V4.8H90.7481V13.888H96.3641V16H88.1561Z" fill="white"/>
<path d="M58.736 36.192C57.8507 36.192 57.0347 36.0533 56.288 35.776C55.552 35.488 54.9067 35.0827 54.352 34.56C53.808 34.0373 53.3813 33.424 53.072 32.72C52.7733 32.016 52.624 31.2427 52.624 30.4C52.624 29.5573 52.7733 28.784 53.072 28.08C53.3813 27.376 53.8133 26.7627 54.368 26.24C54.9227 25.7173 55.5733 25.3173 56.32 25.04C57.0667 24.752 57.888 24.608 58.784 24.608C59.776 24.608 60.6667 24.7733 61.456 25.104C62.256 25.4347 62.928 25.9147 63.472 26.544L61.808 28.08C61.4027 27.6533 60.96 27.3387 60.48 27.136C60 26.9227 59.4773 26.816 58.912 26.816C58.368 26.816 57.872 26.9013 57.424 27.072C56.976 27.2427 56.5867 27.488 56.256 27.808C55.936 28.128 55.6853 28.5067 55.504 28.944C55.3333 29.3813 55.248 29.8667 55.248 30.4C55.248 30.9227 55.3333 31.4027 55.504 31.84C55.6853 32.2773 55.936 32.6613 56.256 32.992C56.5867 33.312 56.9707 33.5573 57.408 33.728C57.856 33.8987 58.3467 33.984 58.88 33.984C59.392 33.984 59.888 33.904 60.368 33.744C60.8587 33.5733 61.3333 33.2907 61.792 32.896L63.264 34.768C62.656 35.2267 61.9467 35.5787 61.136 35.824C60.336 36.0693 59.536 36.192 58.736 36.192ZM60.896 34.432V30.224H63.264V34.768L60.896 34.432ZM71.1118 36.192C70.2264 36.192 69.4051 36.048 68.6478 35.76C67.9011 35.472 67.2504 35.0667 66.6957 34.544C66.1518 34.0213 65.7251 33.408 65.4158 32.704C65.1171 32 64.9678 31.232 64.9678 30.4C64.9678 29.568 65.1171 28.8 65.4158 28.096C65.7251 27.392 66.1571 26.7787 66.7118 26.256C67.2664 25.7333 67.9171 25.328 68.6638 25.04C69.4104 24.752 70.2211 24.608 71.0958 24.608C71.9811 24.608 72.7917 24.752 73.5278 25.04C74.2744 25.328 74.9198 25.7333 75.4638 26.256C76.0184 26.7787 76.4504 27.392 76.7598 28.096C77.0691 28.7893 77.2238 29.5573 77.2238 30.4C77.2238 31.232 77.0691 32.0053 76.7598 32.72C76.4504 33.424 76.0184 34.0373 75.4638 34.56C74.9198 35.072 74.2744 35.472 73.5278 35.76C72.7917 36.048 71.9864 36.192 71.1118 36.192ZM71.0958 33.984C71.5971 33.984 72.0558 33.8987 72.4718 33.728C72.8984 33.5573 73.2718 33.312 73.5918 32.992C73.9118 32.672 74.1571 32.2933 74.3278 31.856C74.5091 31.4187 74.5998 30.9333 74.5998 30.4C74.5998 29.8667 74.5091 29.3813 74.3278 28.944C74.1571 28.5067 73.9118 28.128 73.5918 27.808C73.2824 27.488 72.9144 27.2427 72.4878 27.072C72.0611 26.9013 71.5971 26.816 71.0958 26.816C70.5944 26.816 70.1304 26.9013 69.7038 27.072C69.2878 27.2427 68.9198 27.488 68.5998 27.808C68.2798 28.128 68.0291 28.5067 67.8478 28.944C67.6771 29.3813 67.5918 29.8667 67.5918 30.4C67.5918 30.9227 67.6771 31.408 67.8478 31.856C68.0291 32.2933 68.2744 32.672 68.5838 32.992C68.9038 33.312 69.2771 33.5573 69.7038 33.728C70.1304 33.8987 70.5944 33.984 71.0958 33.984ZM84.6118 36.192C83.7264 36.192 82.9051 36.048 82.1478 35.76C81.4011 35.472 80.7504 35.0667 80.1957 34.544C79.6518 34.0213 79.2251 33.408 78.9158 32.704C78.6171 32 78.4678 31.232 78.4678 30.4C78.4678 29.568 78.6171 28.8 78.9158 28.096C79.2251 27.392 79.6571 26.7787 80.2118 26.256C80.7664 25.7333 81.4171 25.328 82.1638 25.04C82.9104 24.752 83.7211 24.608 84.5958 24.608C85.4811 24.608 86.2917 24.752 87.0278 25.04C87.7744 25.328 88.4198 25.7333 88.9638 26.256C89.5184 26.7787 89.9504 27.392 90.2598 28.096C90.5691 28.7893 90.7238 29.5573 90.7238 30.4C90.7238 31.232 90.5691 32.0053 90.2598 32.72C89.9504 33.424 89.5184 34.0373 88.9638 34.56C88.4198 35.072 87.7744 35.472 87.0278 35.76C86.2917 36.048 85.4864 36.192 84.6118 36.192ZM84.5958 33.984C85.0971 33.984 85.5558 33.8987 85.9718 33.728C86.3984 33.5573 86.7718 33.312 87.0918 32.992C87.4118 32.672 87.6571 32.2933 87.8278 31.856C88.0091 31.4187 88.0998 30.9333 88.0998 30.4C88.0998 29.8667 88.0091 29.3813 87.8278 28.944C87.6571 28.5067 87.4118 28.128 87.0918 27.808C86.7824 27.488 86.4144 27.2427 85.9878 27.072C85.5611 26.9013 85.0971 26.816 84.5958 26.816C84.0944 26.816 83.6304 26.9013 83.2038 27.072C82.7878 27.2427 82.4198 27.488 82.0998 27.808C81.7798 28.128 81.5291 28.5067 81.3478 28.944C81.1771 29.3813 81.0918 29.8667 81.0918 30.4C81.0918 30.9227 81.1771 31.408 81.3478 31.856C81.5291 32.2933 81.7744 32.672 82.0838 32.992C82.4038 33.312 82.7771 33.5573 83.2038 33.728C83.6304 33.8987 84.0944 33.984 84.5958 33.984ZM92.6718 36V24.8H97.7598C98.9758 24.8 100.048 25.0347 100.976 25.504C101.904 25.9627 102.629 26.608 103.152 27.44C103.674 28.272 103.936 29.2587 103.936 30.4C103.936 31.5307 103.674 32.5173 103.152 33.36C102.629 34.192 101.904 34.8427 100.976 35.312C100.048 35.7707 98.9758 36 97.7598 36H92.6718ZM95.2638 33.872H97.6318C98.3784 33.872 99.0238 33.7333 99.5677 33.456C100.122 33.168 100.549 32.7627 100.848 32.24C101.157 31.7173 101.312 31.104 101.312 30.4C101.312 29.6853 101.157 29.072 100.848 28.56C100.549 28.0373 100.122 27.6373 99.5677 27.36C99.0238 27.072 98.3784 26.928 97.6318 26.928H95.2638V33.872ZM105.891 36V24.8H108.035L112.803 32.704H111.667L116.355 24.8H118.483L118.515 36H116.083L116.067 28.528H116.515L112.771 34.816H111.603L107.779 28.528H108.323V36H105.891ZM119.7 36L124.692 24.8H127.252L132.26 36H129.54L125.444 26.112H126.468L122.356 36H119.7ZM122.196 33.6L122.884 31.632H128.644L129.348 33.6H122.196ZM133.422 36V24.8H135.566L142.174 32.864H141.134V24.8H143.694V36H141.566L134.942 27.936H135.982V36H133.422Z" fill="#FFD600"/>
</svg>
